<?xml version="1.0" standalone="no"?>
<!DOCTYPE svg PUBLIC "-//W3C//DTD SVG 20010904//EN"
 "http://www.w3.org/TR/2001/REC-SVG-20010904/DTD/svg10.dtd">
<svg version="1.0" xmlns="http://www.w3.org/2000/svg"
 width="411.000000pt" height="161.000000pt" viewBox="0 0 411.000000 161.000000"
 preserveAspectRatio="xMidYMid meet">

<g transform="translate(0.000000,161.000000) scale(0.100000,-0.100000)"
fill="#000000" stroke="none">
<path d="M0 805 l0 -805 2055 0 2055 0 0 805 0 805 -2055 0 -2055 0 0 -805z
m2028 399 c82 -205 106 -274 94 -272 -11 2 -48 83 -116 252 -84 211 -101 246
-109 228 -6 -12 -51 -124 -101 -249 l-91 -228 -97 -3 c-63 -2 -98 1 -98 8 0 5
48 129 106 275 l106 265 98 0 98 0 110 -276z m842 1 l0 -275 -100 0 -100 0 0
275 0 275 100 0 100 0 0 -275z m-1283 -415 c-6 -74 -18 -90 -66 -89 -34 2 -34
2 -6 6 47 7 55 20 55 84 0 38 4 59 11 59 8 0 10 -19 6 -60z m185 -18 c22 -40
35 -72 30 -72 -6 0 -14 9 -17 20 -5 17 -15 20 -60 20 -45 0 -56 -4 -65 -21 -7
-11 -14 -19 -17 -16 -7 8 71 147 81 144 5 -2 26 -35 48 -75z m123 37 l30 -40
37 43 c47 55 50 41 3 -16 -21 -25 -35 -55 -36 -72 -1 -26 -2 -25 -9 9 -4 20
-16 47 -26 60 -35 39 -47 57 -38 57 5 0 22 -19 39 -41z m238 34 c-62 -4 -63
-4 -63 -33 0 -30 1 -30 58 -32 l57 -2 -57 -3 c-56 -4 -58 -5 -58 -33 0 -29 1
-29 63 -33 l62 -3 -67 -2 -68 -2 0 75 0 75 68 -2 67 -2 -62 -3z m230 0 c3 -5
-14 -6 -37 -5 -29 3 -46 -1 -55 -12 -18 -22 -6 -35 40 -42 22 -4 50 -15 62
-24 21 -18 22 -18 3 -39 -20 -22 -82 -28 -121 -11 -14 6 -7 7 22 3 57 -7 93 3
93 26 0 14 -13 22 -57 32 -60 15 -77 35 -53 64 13 16 95 21 103 8z m157 -63
l59 0 3 38 c2 22 6 7 8 -41 3 -42 2 -77 -2 -77 -5 0 -8 16 -8 35 l0 35 -60 0
-60 0 0 -35 c0 -19 -3 -35 -7 -35 -5 0 -6 35 -3 77 2 48 6 63 8 41 l3 -38 59
0z m-1910 -30 c0 -6 -75 -10 -205 -10 -130 0 -205 4 -205 10 0 6 75 10 205 10
130 0 205 -4 205 -10z m3300 0 c0 -6 -75 -10 -205 -10 -130 0 -205 4 -205 10
0 6 75 10 205 10 130 0 205 -4 205 -10z m-2369 -227 c-120 -304 -175 -439
-181 -446 -4 -4 -50 -6 -103 -5 l-96 3 83 210 c46 116 91 227 99 248 l16 37
100 0 101 0 -19 -47z m841 -203 c54 -135 98 -246 98 -247 0 -2 -24 -3 -54 -3
l-54 0 -12 73 c-20 121 -50 255 -76 333 -27 85 -29 97 -12 92 7 -3 56 -114
110 -248z m488 0 l0 -250 -100 0 -100 0 0 250 0 250 100 0 100 0 0 -250z"/>
<path d="M1701 796 c-12 -18 -21 -36 -21 -40 0 -3 20 -6 45 -6 l45 0 -20 40
c-11 22 -22 40 -24 40 -3 0 -14 -15 -25 -34z"/>
</g>
</svg>
